<?xml version="1.0" encoding="UTF-8" standalone="no"?>
<!-- Created with Inkscape (http://www.inkscape.org/) -->

<svg
   width="161.00703mm"
   height="112.86747mm"
   viewBox="0 0 161.00703 112.86747"
   version="1.1"
   id="svg1"
   xml:space="preserve"
   sodipodi:docname="favicon.svg"
   inkscape:version="1.4.3 (0d15f75042, 2025-12-25)"
   xmlns:inkscape="http://www.inkscape.org/namespaces/inkscape"
   xmlns:sodipodi="http://sodipodi.sourceforge.net/DTD/sodipodi-0.dtd"
   xmlns="http://www.w3.org/2000/svg"
   xmlns:svg="http://www.w3.org/2000/svg"><sodipodi:namedview
     id="namedview1"
     pagecolor="#ffffff"
     bordercolor="#000000"
     borderopacity="0.25"
     inkscape:showpageshadow="2"
     inkscape:pageopacity="0.0"
     inkscape:pagecheckerboard="0"
     inkscape:deskcolor="#d1d1d1"
     inkscape:document-units="mm"
     inkscape:zoom="1.1392787"
     inkscape:cx="304.13981"
     inkscape:cy="213.29286"
     inkscape:window-width="1269"
     inkscape:window-height="1391"
     inkscape:window-x="0"
     inkscape:window-y="0"
     inkscape:window-maximized="1"
     inkscape:current-layer="svg1" /><defs
     id="defs1" /><g
     id="layer1"
     transform="translate(-24.419009,-55.125177)"
     style="stroke:none;fill:#ffffff;fill-opacity:1"><path
       style="fill:#ffffff;stroke:none;fill-opacity:1"
       d="M 101.46771,167.51202 C 93.736817,164.71074 81.286896,154.59041 73.224379,144.5535 68.099098,138.1731 65.473608,132.85403 62.33381,122.4899 l -0.685025,-2.26119 -2.771462,-1.13818 c -1.524304,-0.626 -3.816452,-1.82885 -5.093662,-2.67299 -2.746463,-1.8152 -6.14734,-5.21899 -7.799347,-7.80603 -0.650478,-1.01865 -4.116034,-7.74568 -7.701236,-14.948958 -3.585202,-7.20328 -7.905745,-15.716249 -9.601208,-18.917707 -1.695462,-3.201458 -3.383684,-6.388645 -3.751605,-7.082638 -0.56127,-1.058702 -0.620804,-1.367466 -0.369859,-1.918229 0.606353,-1.330799 1.433186,-1.017189 7.868986,2.984634 2.318472,1.441641 7.112458,4.375018 10.653302,6.518615 3.540845,2.143597 8.943253,5.562502 12.005351,7.597566 3.062099,2.035064 5.747236,3.664477 5.966971,3.620918 0.234271,-0.04644 1.016648,-1.556588 1.891548,-3.651075 1.552788,-3.717329 2.562272,-5.651093 4.350799,-8.334374 8.696552,-13.047213 24.537772,-20.522078 40.702447,-19.205925 10.48274,0.853521 19.23611,4.380579 27.06998,10.907498 5.36444,4.469473 9.39919,10.090026 12.46228,17.360406 0.68973,1.637109 1.40061,2.976562 1.57972,2.976562 0.17912,0 3.16513,-1.880661 6.63558,-4.179246 3.47046,-2.298585 7.38148,-4.820934 8.69117,-5.605218 1.30969,-0.784285 5.88402,-3.559466 10.16518,-6.16707 8.1977,-4.993121 9.29922,-5.549381 10.27388,-5.188204 0.99111,0.367275 0.72456,1.361389 -1.5067,5.619193 -4.35688,8.314028 -9.72111,18.850457 -13.82864,27.162211 -4.32531,8.752451 -5.26448,10.384111 -7.81439,13.576321 -2.59484,3.24844 -6.89193,6.15736 -11.44454,7.7474 -1.56907,0.54801 -1.74917,0.68918 -2.055,1.61086 -0.18437,0.55561 -1.03909,3.18119 -1.89939,5.83462 -3.04676,9.39714 -6.06517,14.4331 -13.50274,22.52819 -2.59808,2.82777 -7.66291,7.53574 -10.85328,10.08859 -4.20062,3.36122 -10.27723,6.88126 -13.70867,7.94113 -2.15011,0.6641 -5.00291,0.67436 -6.79654,0.0244 z"
       id="path1" /></g></svg>
